<svg xmlns="http://www.w3.org/2000/svg" xmlns:xlink="http://www.w3.org/1999/xlink" viewBox="0,0,256,256" width="32px" height="32px" fill-rule="nonzero"><g fill="#6c757d" fill-rule="nonzero" stroke="none" stroke-width="1" stroke-linecap="butt" stroke-linejoin="miter" stroke-miterlimit="10" stroke-dasharray="" stroke-dashoffset="0" font-family="none" font-weight="none" font-size="none" text-anchor="none" style="mix-blend-mode: normal"><g transform="scale(8,8)"><path d="M16,4c-6.63,0 -12,5.37 -12,12c0,6.63 5.37,12 12,12c6.63,0 12,-5.37 12,-12c0,-6.63 -5.37,-12 -12,-12zM18.852,21.859c-1.162,-0.217 -2.638,-1.108 -3.622,-2.468c-0.296,-0.409 -0.23,-0.979 0.14,-1.321l2.062,-1.901c0.406,-0.374 0.432,-1.007 0.058,-1.413c-0.374,-0.406 -1.006,-0.431 -1.413,-0.058l-3.16,2.913c-0.171,0.157 -0.396,0.256 -0.628,0.267c-1.166,0.058 -2.118,-0.074 -2.876,-0.508c-0.545,-0.312 -0.676,-1.063 -0.254,-1.528c2.31,-2.547 7.461,-5.014 11.856,-4.891c0.474,0.013 0.875,0.384 0.929,0.855c0.306,2.664 -0.675,7.774 -2.135,9.69c-0.222,0.292 -0.594,0.431 -0.957,0.363z"></path></g></g></svg>